<svg viewBox="0 0 566.89 79" version="1.1" xmlns="http://www.w3.org/2000/svg" id="Layer_1">
  
  <path d="M566.89,65.42l-10.17-.26s-32.97-36.65-33.49-36.27v36h-9.83l-.25-45.81h11l32,34.36V19.07h10.74v46.35Z"></path>
  <path d="M65.52,0c9.97,2.99,19.91,6.07,29.91,8.95,9.83,2.83,19.71,5.47,29.43,8.93H4.02c-.08-.23-.15-.47-.23-.7,8.4-2.35,16.82-4.65,25.2-7.07C40.43,6.78,51.84,3.37,63.26,0c.75,0,1.51,0,2.26,0Z"></path>
  <path d="M381.78,64.8V19.18c14.42.28,28.88-1.66,42.76,3.36,9.35,3.38,13.79,10.27,13.61,19.7-.18,9.53-5.09,16.8-14.36,19.66-5.63,1.74-11.61,2.71-17.49,3.12-7.54.52-15.14.11-22.71.09-.42,0-.85-.14-1.82-.32ZM392.86,58.36c11.35,0,16.23-.07,23.84-1.59,6.42-1.28,9.95-7.36,10.02-14.63.06-6.97-3.4-13.35-9.48-14.59-7.87-1.61-15-1.76-24.38-1.76v32.57Z"></path>
  <path d="M184.78,66.73c-10.79,0-15-2.19-21.57-6.21-13.72-8.39-14.26-26.91-1.01-36.06,11.02-7.61,32.49-7.99,43.79-.8,7.51,4.78,11.51,11.51,10.68,20.49-.81,8.79-10.93,16.35-13.92,17.9s-7.18,4.67-17.97,4.67ZM184.28,59.29c1.46,0,2.92.11,4.37-.02,9.31-.85,16.07-7.11,16.79-15.47.76-8.82-4.49-16.03-13.5-18.23-6.08-1.48-12.14-1.21-17.98,1.25-8.28,3.49-12.23,12.54-9.18,20.9,2.79,7.64,9.45,11.64,19.51,11.57Z"></path>
  <path d="M239.43,47.44v17.46h-10.64V19.14c13.79.57,27.61-1.52,41.23,1.81,5.6,1.37,9.51,5.99,9.8,10.95.34,5.71-2.37,10.61-8.34,12.37-5.91,1.74-6.81,1.82-12.97,2.48-4.29.46-11.13.69-19.08.69ZM239.77,41.04c5.16,0,9.82.2,14.46-.07,3.29-.19,6.62-.73,9.8-1.59,3.15-.86,4.7-3.31,4.49-6.64-.21-3.3-1.97-5.69-5.23-6.05-7.72-.85-10.74-1.09-23.51-1.09v15.43Z"></path>
  <path d="M442.91,65.16l24.37-46.15s12.84,0,12.84,0l25.18,46.1-11.11-.13-7.92-13.19h-25l-7.51,13.26-10.86.11ZM463.78,45.98h20.38c-3.56-6.65-6.83-12.76-10.56-19.73-3.59,7.21-6.66,13.37-9.83,19.73Z"></path>
  <path d="M355.23,64.81V19.53h10.55v45.28h-10.55Z"></path>
  <path d="M70.31,21.81h7.08v50h-7.08V21.81Z"></path>
  <path d="M107.87,21.74h6.82v50.11h-6.82V21.74Z"></path>
  <path d="M32.82,21.71h6.91v50.09h-6.91V21.71Z"></path>
  <path d="M51.61,21.86h7.26v49.95h-7.26V21.86Z"></path>
  <path d="M96.2,72.04h-7.07V21.87c2.54-.13,4.34-.21,7.07-.35v50.52Z"></path>
  <path d="M21.34,72h-7.13V22h7.13v50Z"></path>
  <path d="M126.13,75.3H3.98c0-.15,0-.3,0-.45h122.15c0,.15,0,.3,0,.45Z"></path>
  <path d="M303.43,47.44v17.46h-10.64V19.14c13.79.57,27.61-1.52,41.23,1.81,5.6,1.37,9.51,5.99,9.8,10.95.34,5.71-2.37,10.61-8.34,12.37-5.91,1.74-6.81,1.82-12.97,2.48-4.29.46-11.13.69-19.08.69ZM303.77,41.04c5.16,0,9.82.2,14.46-.07,3.29-.19,6.62-.73,9.8-1.59,3.15-.86,4.7-3.31,4.49-6.64-.21-3.3-1.97-5.69-5.23-6.05-7.72-.85-10.74-1.09-23.51-1.09v15.43Z"></path>
  <rect height="1.09" width="128.78" y="77.92"></rect>
</svg>