<svg viewBox="0 0 390.37 167.02" version="1.1" xmlns="http://www.w3.org/2000/svg" id="Layer_1">
  
  <path d="M0,167.02c.03-.77.08-1.53.08-2.3,0-38.26,0-76.51,0-114.77,0-.54,0-1.09,0-1.8C71.58,32.1,143.02,16.07,214.62,0v80.46h-5.44V6.93c-3.83.84-7.46,1.61-11.08,2.43-16.87,3.82-33.73,7.65-50.59,11.47-20.76,4.7-41.53,9.4-62.29,14.08-17.46,3.94-34.93,7.87-52.39,11.8-8.54,1.93-17.08,3.88-25.63,5.77-1.14.25-1.61.67-1.61,1.94.04,35.01.05,70.03,0,105.04,0,1.64.53,1.99,2.05,1.99,66.62-.04,133.24-.04,199.86-.04.59,0,1.19,0,1.96,0v-19.63h5.59v25.24H0Z"></path>
  <path d="M113.13,91.24c-.11,2.36-.21,4.54-.31,6.71l.29.2c.42-.49.85-.98,1.26-1.48,3.78-4.53,8.55-6.33,14.37-5.12,2.97.62,4.76,2.54,5.66,5.37.15.49.3.98.4,1.32,2.03-1.75,3.84-3.59,5.92-5.06,2.6-1.84,5.69-2.27,8.81-1.93,4.32.47,7.19,3.45,7.71,7.9.21,1.79.32,3.61.33,5.41.04,6.48.01,12.97.01,19.45,0,3.34.21,3.6,3.39,4.32.26.06.52.13.84.21v1.78h-18.01c-.05-.54-.1-1.07-.15-1.52.18-.15.25-.27.34-.29,3.73-.52,4.1-.93,4.1-4.7,0-6.48.01-12.97,0-19.45,0-.87-.14-1.75-.21-2.62-.34-4.14-3.23-5.34-6.6-4.55-1.86.43-3.56,1.62-5.25,2.61-.39.23-.65,1.01-.65,1.54-.04,7.69.07,15.39-.07,23.08-.06,3.18,1.78,3.89,4.36,4.04v1.87h-18.13v-1.63c.09-.06.17-.17.27-.18,3.6-.4,3.94-.79,3.94-4.38,0-7.03,0-14.07,0-21.1,0-4.9-2.79-7.07-7.52-5.65-1.69.51-3.24,1.54-4.77,2.48-.39.24-.63,1.01-.63,1.53-.04,7.86-.05,15.72-.01,23.57,0,2.19.6,2.79,2.72,3.22.48.1.95.23,1.5.36v1.78h-18.25c-.03-.52-.07-1.09-.1-1.6.19-.13.28-.22.37-.23,3.74-.35,4.26-.92,4.26-4.7,0-7.69-.02-15.39.03-23.08,0-1.17-.2-1.97-1.38-2.45-.85-.35-1.64-.9-2.4-1.43-.86-.6-.82-1.58.1-1.89,3.9-1.28,7.82-2.5,11.75-3.71.45-.14.98-.02,1.75-.02Z"></path>
  <path d="M317.39,107.95c-1.03,2.54-1.92,4.76-2.82,6.98-2.07,5.13-4.17,10.25-6.2,15.4-.36.92-.76,1.38-1.86,1.4-1.15.02-1.61-.45-2.02-1.43-4.48-10.95-8.97-21.9-13.55-32.81-.4-.95-1.3-1.94-2.22-2.37-1.31-.62-1.77-1.3-1.27-2.72h18.16v1.83c-.12.06-.25.16-.4.2-3.96,1.03-4.09,1.25-2.65,5.16,2.38,6.47,4.8,12.92,7.35,19.77.61-1.57,1.09-2.77,1.55-3.98,1.41-3.68,2.86-7.35,4.19-11.06.25-.69.21-1.61,0-2.33-.55-1.83-1.17-3.67-1.98-5.39-.41-.87-1.16-1.84-2-2.19-1.28-.54-1.5-1.23-1.12-2.48h17.46c.52,1.37.28,2.03-1.38,2.25-2.83.39-3.61,1.5-2.71,4.19,2.2,6.59,4.58,13.11,7,19.98.4-.75.7-1.22.91-1.72,2.22-5.42,4.43-10.85,6.64-16.28.19-.46.38-.91.52-1.38.7-2.44.02-3.62-2.44-4.25-.53-.13-1.05-.27-1.64-.43v-1.84h11.46c.36,1.25.24,2.15-1.11,2.53-1.83.51-2.4,2.07-3.01,3.62-4.13,10.5-8.28,21-12.42,31.5-.34.86-.54,1.65-1.86,1.65-1.39,0-1.98-.45-2.43-1.74-2.39-6.76-4.89-13.48-7.36-20.22-.18-.5-.42-.98-.78-1.82Z"></path>
  <path d="M366.68,128.29v1.81h-18.45v-1.72c.16-.09.25-.17.34-.18,3.62-.23,4.21-.9,4.19-4.53-.03-7.75-.04-15.49,0-23.24,0-1.18-.24-1.97-1.37-2.48-.89-.41-1.73-.96-2.52-1.55-.7-.52-.86-1.27.11-1.6,4.05-1.35,8.12-2.62,12.2-3.88.39-.12.86-.02,1.36-.02v7.38c.79-.93,1.29-1.6,1.87-2.19,3.25-3.31,7.07-5.31,11.83-5.2,5.61.13,9.39,3.57,9.57,9.19.24,7.68.2,15.37.28,23.06,0,.16,0,.33,0,.49q0,3.84,3.61,4.77c.21.05.41.11.67.18v1.76h-18.51c-.03-.57-.06-1.1-.08-1.56.17-.13.25-.25.34-.26,3.65-.47,4.02-.85,4.02-4.55,0-7.2.05-14.39-.06-21.59-.07-4.36-2.49-6.41-6.75-5.55-2.14.43-4.14,1.62-6.14,2.59-.39.19-.72.96-.72,1.46-.05,8.08-.03,16.15-.04,24.23,0,1.58.75,2.44,2.27,2.72.64.12,1.27.28,1.99.44Z"></path>
  <path d="M34.91,115.67c0,2.84-.29,5.49.07,8.05.56,4.05,3.5,6.08,7.09,5.02,1.18-.35,2.56-1.34,3.06-2.41.82-1.73,1.35-3.75,1.37-5.66.11-13.24.07-26.48.06-39.72,0-2.98-.69-3.78-3.56-4.36-.64-.13-1.27-.28-1.99-.44v-2.22h21.47v2.2c-1.09.26-2.2.51-3.3.79-1.32.34-2.05,1.21-2.18,2.56-.11,1.2-.25,2.4-.26,3.61-.03,11.1.03,22.2-.06,33.29-.07,8.87-5.67,14.55-14.57,14.96-3.53.16-7.02-.04-10.37-1.3-4.98-1.86-7.46-6.92-5.63-11.5.84-2.11,1.96-2.86,4.22-2.86,1.48,0,2.95,0,4.58,0Z"></path>
  <path d="M288.7,109.83c-.12,7.74-2.24,13.92-8.13,18.33-8.68,6.5-26.19,3.74-28.26-12.53-.73-5.73-.06-11.16,2.92-16.16,3.94-6.62,10.86-9.22,17.46-8.43,8.89,1.06,14.02,7.28,15.49,14.38.34,1.65.41,3.37.53,4.41ZM278.61,112.05c-.17-2.3-.25-4.6-.55-6.88-.4-3.05-1.03-6.06-2.77-8.69-2.65-3.98-7.66-3.97-10.15.11-.92,1.51-1.56,3.27-1.95,5.01-1.16,5.26-1.01,10.61-.23,15.88.41,2.77,1.32,5.55,2.48,8.1,1.31,2.87,3.95,3.93,6.66,3.22,2.49-.65,3.74-2.59,4.6-4.79,1.51-3.84,1.82-7.87,1.9-11.96Z"></path>
  <path d="M97.48,125.57c-.31,1.05-.31,1.91-.74,2.39-2.35,2.63-5.41,3.47-8.8,2.97-2.28-.33-3.86-1.73-4.76-3.87-.29-.69-.54-1.39-.68-1.74-2.31,1.63-4.43,3.65-6.94,4.79-5.12,2.34-12.27.77-13.73-6.23-1.01-4.87,1.14-9.35,5.91-11.45,4.3-1.9,8.73-3.52,13.14-5.18,1-.37,1.38-.84,1.31-1.89-.17-2.79.04-5.63-.44-8.36-.68-3.86-4.4-5.5-7.45-3.6-1.83,1.14-2.37,2.98-2.43,4.95-.05,1.68.18,3.38.3,5.36-1.91.22-3.84.58-5.77.62-1.6.03-2.91-1.87-3.02-3.96-.17-3.26,1.74-6.23,5.1-7.75,3.7-1.68,7.62-2.05,11.59-1.57,1.98.24,4.02.68,5.84,1.47,3.58,1.54,5.22,4.64,5.36,8.39.24,6.48.27,12.96.39,19.44.01.55.01,1.1.03,1.65.11,4.17,1.17,4.95,5.79,3.57ZM81.51,109.43c-2.23.95-4.23,1.79-6.23,2.65-3.95,1.71-5.08,3.57-4.85,7.77.13,2.46.82,4.6,3.29,5.58,2.75,1.09,5.15.1,7.31-1.63.23-.18.45-.54.45-.81.03-4.43.02-8.86.02-13.56Z"></path>
  <path d="M195.2,107.93h-23.28c-.44,3.66.2,7.05,1.78,10.22,3.99,8.05,13.92,8.85,19.86,1.68.33-.4.84-.64,1.27-.96.05.57.28,1.2.13,1.71-1.96,6.21-6.18,9.96-12.65,10.66-6.94.75-12.66-1.7-16.37-7.83-5.04-8.31-3.47-22.16,4.25-28.7,6.17-5.22,15.73-5.11,21.06.52,3.32,3.5,3.93,7.91,3.94,12.71ZM186.83,105.27c-.59-2.85-.83-5.55-1.74-8.01-1.55-4.15-6.33-5.05-9.54-1.98-2.79,2.68-3.38,6.23-3.81,9.99h15.09Z"></path>
  <path d="M198.29,117.9c1.34-.44,2.16-.1,2.59,1.55.71,2.74,2.05,5.21,4.2,7.14,2.57,2.32,5.57,2.99,8.87,2.04,2.22-.64,3.74-2.09,4.12-4.45.41-2.59-.21-4.9-2.58-6.27-1.84-1.07-3.86-1.81-5.79-2.71-2.13-.99-4.37-1.81-6.36-3.03-4.31-2.63-5.9-7.19-4.69-12.65.94-4.24,4.7-7.56,9.25-8.29,4.87-.78,9.48-.08,13.89,2.14.82.41,1.19.89,1.16,1.88-.09,2.41-.03,4.82-.03,7.29-1.32.43-2.04.33-2.59-1.19-.67-1.88-1.62-3.74-2.83-5.31-1.77-2.29-4.33-3.06-7.21-2.63-2.28.34-3.82,1.6-4.47,3.82-.7,2.39-.23,4.65,1.88,5.99,2.24,1.42,4.8,2.34,7.2,3.53,2.34,1.17,4.85,2.15,6.93,3.69,3.9,2.88,4.51,7.14,3.64,11.57-.9,4.58-3.99,7.43-8.38,8.61-6.2,1.66-12.19.8-17.81-2.33-.41-.23-.91-.77-.92-1.17-.08-3.01-.04-6.02-.04-9.19Z"></path>
  <path d="M251.54,124.2c-.11.76-.05,1.41-.31,1.86-2.83,4.95-10.24,7.18-15.31,4.58-3.72-1.92-4.89-5.38-4.94-9.22-.12-8.19-.05-16.38-.06-24.57,0-.53,0-1.07,0-1.78h-4.2c-.13-.15-.25-.31-.38-.46.41-.56.7-1.35,1.25-1.66,4.13-2.29,7.38-5.51,10.05-9.34.75-1.08,1.51-1.68,3.08-1.12,0,2.38.09,4.89-.03,7.38-.08,1.6.45,2.08,2.03,1.99,2.34-.14,4.7-.03,7.15-.03v3.2h-9.15c0,.75,0,1.33,0,1.91,0,7.42,0,14.84,0,22.26,0,.44,0,.88.03,1.32.3,4.78,3.41,6.8,7.91,5.1.86-.33,1.67-.82,2.87-1.42Z"></path>
</svg>