<svg viewBox="0 0 561.16 96.91" version="1.1" xmlns="http://www.w3.org/2000/svg" id="Layer_1">
  
  <path d="M.02,23.23C.02,16.68.05,10.13,0,3.58-.01,2.2.27,1.15,1.64.6c1.36-.55,2.26.16,3.1,1.08,8.28,9.06,16.56,18.11,24.84,27.17,19.21,21,38.41,42,57.62,63,.73.8,1.52,1.56,2.15,2.43.32.44.62,1.23.43,1.61-.24.48-.96.77-1.53,1.03-.3.14-.71.03-1.07.03-12.48,0-24.96-.02-37.44.03-1.24,0-2.09-.34-2.93-1.26C31.43,78.85,16.01,62,.63,45.12c-.39-.42-.57-1.18-.58-1.78-.04-6.7-.03-13.41-.03-20.11Z"></path>
  <path d="M50.52,43.39c0,.69.31,1.53.77,2.04,15.31,16.81,30.67,33.57,45.99,50.37.76.83,1.51,1.18,2.66,1.18,12.53-.04,25.07-.03,37.6-.03.36,0,.77.11,1.07-.03.57-.25,1.3-.53,1.54-1.01.19-.39-.17-1.11-.4-1.63-.16-.36-.53-.63-.81-.93C111.03,62.84,83.13,32.32,55.22,1.81c-.87-.95-1.74-1.74-3.2-1.21-1.5.55-1.55,1.75-1.55,3.03,0,6.55,0,13.1,0,19.65,0,6.7-.02,13.41.03,20.11Z"></path>
  <path d="M141.77,43.69c0-1.11-.29-1.92-1.05-2.74-6.88-7.47-13.71-14.97-20.56-22.47-5.18-5.67-10.36-11.33-15.55-16.99-.77-.84-1.63-1.4-2.86-.88-1.17.5-1.49,1.33-1.49,2.57.04,13.35,0,26.7.06,40.06,0,.77.39,1.7.9,2.29,2.33,2.69,4.77,5.28,7.17,7.9,9.71,10.61,19.42,21.21,29.12,31.82.85.93,1.76,1.67,3.09,1.13,1.25-.52,1.16-1.68,1.16-2.78,0-6.65,0-13.3,0-19.95,0-6.65-.02-13.3.02-19.95Z"></path>
  <path d="M301.21,41.54c-2.25,1.74-4.77.95-5.23-1.8-.46-2.74-.74-5.51-.91-8.28-.4-6.41-2.85-9.33-9.11-10.6-1.66-.34-3.32-.68-4.98-1.02.49-.35.99-.38,1.47-.51,1.98-.54,4.03-.92,5.89-1.72,2.89-1.25,4.92-3.35,5.17-6.73.27-3.7-1.4-6.34-4.45-8.21-2.65-1.63-5.61-2.43-8.67-2.47-7.58-.1-15.15-.02-22.73,0-.31,0-.62.15-.93.23,0,.18,0,.35,0,.53h5.97v41.09c-1.14,0-2.17-.02-3.2,0-.92.03-1.84.12-2.76.18.02.16.03.32.05.48h21.48c.01-.16.02-.32.03-.49h-6.04c0-7.25-.01-14.1.04-20.94,0-.3.57-.84.9-.86,1.49-.07,3-.11,4.48.05,4.34.47,6.64,2.74,7.16,7.11.3,2.56.46,5.13.63,7.7.3,4.39,2.29,7.26,6.18,7.97,2.43.44,5.01.27,7.5.08,1.58-.12,2.89-1.11,3.71-2.63-.65.14-1.16.47-1.65.85ZM273.25,19.52c-.33,0-.93-.62-.93-.96-.06-5.76-.04-11.52-.04-17.42,2.48-.59,4.78-.48,6.99.31,2.88,1.03,3.75,3.51,3.99,6.23.17,1.89.13,3.8.03,5.7-.18,3.2-1.97,5.29-5.12,5.86-1.61.29-3.28.29-4.92.29Z"></path>
  <path d="M192.56,24.12c-1.29-1.12-2.9-2.02-4.52-2.57-2.42-.82-4.97-1.23-6.81-1.66,2.24-.88,5.22-1.66,7.8-3.14,6.09-3.51,5.9-10.75-.21-14.27-2.55-1.47-5.36-2.25-8.26-2.29-7.63-.1-15.26-.02-22.9,0-.27,0-.53.14-.8.21,0,.2,0,.4,0,.6h5.88v40.93c-2.02.28-4.01-.19-5.86.53.21.32.39.41.58.41,7.69,0,15.37.14,23.06-.05,4.05-.1,7.95-1.22,11.28-3.73,5.17-3.89,5.56-10.79.75-14.95ZM172.36,1.31c6.64-1.64,10.65.92,10.96,6.43.11,1.95.14,3.91,0,5.85-.22,3.02-1.77,4.9-4.73,5.52-1.94.41-3.96.42-6.09.62-.07-.68-.14-.98-.14-1.28,0-5.72,0-11.44,0-17.14ZM184.08,37.87c-.86,2.36-2.64,3.85-5.17,4.05-2.12.17-4.26.03-6.47.03v-21.37c6.52-.96,10.65.54,12.15,5.75,1.1,3.84.87,7.76-.51,11.53Z"></path>
  <path d="M350.87.39h-13.03c-.01.18-.02.36-.03.54h6.22c.03.14.05.28.08.42-6.61,6.33-13.23,12.66-20.12,19.26V1.05c1.14,0,2.16.02,3.19,0,.93-.02,1.85-.09,2.78-.14-.02-.18-.03-.36-.05-.54h-21.47c-.01.18-.03.35-.04.53h5.94v41.11c-1.11,0-2.14-.09-3.15.03-.92.1-2.05-.5-3,.67h21.73c.01-.19.02-.38.04-.57h-5.93v-20.98c.12-.06.23-.11.35-.17,5.74,6.92,11.47,13.84,17.43,21.02-1.43,0-2.41-.07-3.38.02-.82.08-1.86-.45-2.65.67h22c.01-.18.03-.37.04-.55-.74-.05-1.49-.2-2.21-.12-1.37.15-2.24-.39-3.11-1.45-5.08-6.17-10.26-12.26-15.39-18.38-1.98-2.36-3.94-4.72-5.97-7.14,4.06-3.9,8.1-7.58,11.89-11.51,1.83-1.9,3.71-2.92,6.34-2.5.5.08,1.05-.13,1.58-.21-.02-.14-.04-.28-.06-.43Z"></path>
  <path d="M471.12,41.99c-1.12,0-2.14-.03-3.16,0-.9.03-1.79.13-2.69.2.03.18.05.37.08.55h41.56v-12.93c-.16-.05-.31-.09-.47-.14-.28.64-.59,1.27-.83,1.92-2.08,5.74-5.89,9.58-12.13,10.26-3.26.36-6.59.11-9.89.13-.91,0-1.82,0-2.74,0v-21.56c.33-.04.57-.08.82-.09,8-.29,9.6.78,12.46,8.28.1.26.39.45.79.88V10.7c-.14-.05-.27-.1-.41-.14-1.13,2.81-1.76,5.93-4.6,7.64-2.83,1.71-5.91,1.37-9.03,1.33V1.05c.84,0,1.56,0,2.28,0,2.63,0,5.26.02,7.89,0,5.78-.04,9.59,2.85,11.92,7.97.24.52.55,1,.83,1.49.14-.07.27-.13.41-.2V.36h-38.89c-.01.16-.02.33-.04.49h5.84v41.14Z"></path>
  <path d="M235.54,29.17V10.74c-.15-.08-.3-.16-.46-.24-1.24,2.75-1.78,5.96-4.6,7.67-2.87,1.74-5.99,1.43-9.13,1.35V1.05c1.43,0,2.77,0,4.1,0,2.78.02,5.61-.23,8.34.14,4.74.64,7.84,3.57,9.71,7.9.22.51.58.95.87,1.43.13-.08.25-.15.38-.23V.25c-7.7-.52-38.18-.19-39.42.73h6.32v41.02c-.79,0-1.45,0-2.12,0-.72,0-1.45-.03-2.17,0-.55.03-1.1.15-1.64.23.03.17.06.34.09.51h41.52v-12.94c-.14-.03-.28-.06-.41-.1-.23.51-.5,1.01-.68,1.54-1.78,5.21-4.96,9.32-10.53,10.25-4.67.78-9.52.49-14.34.67v-21.78c1.77,0,3.42-.09,5.06.02,3.7.24,6.07,2.27,7.33,5.69.3.82.54,1.66.86,2.48.12.29.4.52.61.77.1-.06.2-.11.3-.17Z"></path>
  <path d="M401.97,10.29V.4h-39.06c-.01.18-.02.37-.03.55h5.96v41.05c-1.13,0-2.17-.08-3.18.02-.91.1-2.04-.49-3.05.76h41.93v-12.92c-.13-.05-.27-.09-.4-.14-.23.47-.52.93-.68,1.42-1.98,5.82-5.67,9.95-11.96,10.66-4.22.48-8.54.1-12.82.1-.07,0-.15-.13-.17-.14v-21.25c2.03,0,3.94-.11,5.82.03,2.81.2,4.78,1.8,6.02,4.25.55,1.09.85,2.31,1.33,3.45.17.41.5.74.75,1.11.1-.07.19-.14.29-.21V10.72c-.13-.05-.26-.1-.4-.14-.84,1.82-1.56,3.72-2.54,5.46-1.08,1.89-2.91,2.97-5.03,3.25-2.06.28-4.16.26-6.27.37V1.05c.83,0,1.54,0,2.26,0,2.68,0,5.36,0,8.05,0,5.78-.02,9.58,2.87,11.88,8.02.23.51.58.96.87,1.44.15-.07.29-.14.44-.22Z"></path>
  <path d="M430.32.87h5.88c-1.21-.94-20.61-.87-21.53.11h5.91v41.02c-.79,0-1.45,0-2.12,0-.72,0-1.45-.03-2.17,0-.55.03-1.1.15-1.65.23.03.17.06.34.09.51h41.2v-13.4c-.14-.03-.28-.07-.43-.1-.24.61-.51,1.22-.72,1.84-1.97,5.71-5.43,10-11.72,10.72-4.16.47-8.43.09-12.75.09V.87Z"></path>
  <path d="M542.74,40.27c0-5.26-.03-10.52.03-15.78.01-.88.26-1.84.69-2.6,3.23-5.74,6.7-11.36,9.74-17.2,1.47-2.82,3.17-4.3,6.39-3.66.49.1,1.05-.14,1.57-.22-.02-.15-.04-.29-.06-.44h-12.47c-.01.17-.03.34-.04.51h5.78c-4.16,7.23-8.09,14.06-12.12,21.05-4.49-7.04-8.84-13.87-13.31-20.88,1.2,0,2.08.03,2.95-.01.72-.04,1.44-.16,2.17-.25-.03-.14-.07-.28-.1-.42h-20.93c-.01.19-.02.38-.04.58,1.21.03,2.43.16,3.63.07,1.13-.08,1.74.34,2.32,1.29,4.55,7.36,9.16,14.68,13.72,22.03.38.62.62,1.43.63,2.15.06,4.69.03,9.39.02,14.08,0,.44-.06.88-.11,1.42-1.17,0-2.2-.02-3.22,0-.9.03-1.8.11-2.7.16,0,.18.02.35.03.53h21.51c.01-.17.02-.34.04-.52-1.92-.47-3.94.02-6.12-.3,0-.6,0-1.1,0-1.61Z"></path>
  <path d="M369.38,62.72c.5.69,1,1.37,1.49,2.06,7.05,9.97,14.1,19.94,21.17,29.9.33.47.83,1.08,1.31,1.14,1.3.16,2.64.05,4.01.05v-38.42h-3.92v32.93c-.61-.34-.93-.78-1.25-1.23-7.25-10.21-14.5-20.42-21.77-30.62-.33-.47-.83-1.07-1.31-1.13-1.3-.16-2.63-.05-3.95-.05v38.42h3.92v-32.95c.1-.04.2-.07.29-.11Z"></path>
  <path d="M291.45,84.27c-.27-3.2-1.34-5.93-4.78-7.4.82-.46,1.41-.79,1.99-1.12,3.74-2.11,4.69-5.52,4.39-9.49-.29-3.99-2.37-6.68-6.18-7.8-2.06-.6-4.23-1-6.37-1.06-5.57-.15-11.14-.05-16.71-.04-.29,0-.59.07-.89.11v38.31h3.92v-17.3c4.75,0,9.33-.09,13.91.03,4.46.11,6.32,2.04,6.67,6.43.24,3.03.53,6.05.9,9.07.08.64.53,1.68.95,1.76,1.3.23,2.66.08,3.79.08-.4-1.59-.9-2.94-1.06-4.33-.28-2.4-.33-4.83-.53-7.24ZM281.42,75c-4.77.22-9.57.05-14.55.05v-14.43c.29-.05.59-.15.88-.15,4.83.07,9.69-.14,14.49.33,4.86.48,7.05,3.09,6.89,7.09-.15,3.94-3.14,6.9-7.71,7.11Z"></path>
  <path d="M502.66,85.7c-.22-3.67-.87-7.12-5.06-8.92,5.02-1.97,6.92-5.51,6.51-10.48-.3-3.64-1.98-6.24-5.4-7.59-1.19-.47-2.45-.88-3.71-1.01-2.4-.24-4.83-.33-7.25-.35-4.58-.05-9.16-.01-13.82-.01v38.45h3.95v-17.27c5.13,0,10.02-.16,14.91.05,3.48.15,5.26,2.18,5.63,5.64.05.46.05.93.09,1.39.29,2.87.53,5.74.91,8.6.08.6.64,1.51,1.11,1.6,1.21.23,2.49.08,3.52.08-.42-1.89-.9-3.55-1.13-5.24-.22-1.63-.16-3.29-.26-4.94ZM494.77,74.54c-.97.3-2.01.53-3.02.54-4.57.06-9.14.02-13.82.02v-14.8c5.39.17,10.7.12,15.96.57,4,.34,6.08,2.76,6.34,6.37.24,3.36-1.84,6.18-5.46,7.29Z"></path>
  <path d="M533.28,95.48c5.41,2.09,10.91,1.97,16.32-.03,2.87-1.06,5.03-3.02,6.05-6.01,2.11-6.19-.58-11.39-7.04-13.38-2.55-.79-5.21-1.2-7.78-1.95-2.45-.72-5-1.36-7.22-2.56-2.91-1.57-3.62-5.37-1.65-8.04.9-1.23,2.25-2.29,3.62-2.98,2.72-1.36,5.69-1.27,8.62-.72,3.88.73,6.78,3.31,7.02,7.31.01.23.16.46.23.64h3.43c.46-3.67-2.01-7.98-5.57-9.65-5.45-2.56-10.99-2.54-16.43-.08-3.73,1.69-5.86,4.7-5.84,8.89.01,4.41,2.45,7.26,6.42,8.72,2.65.97,5.47,1.45,8.18,2.26,2.5.74,5.09,1.37,7.41,2.51,2.82,1.39,3.7,4,3.02,7.07-.56,2.53-2.12,4.18-4.43,5.19-2.64,1.15-5.42,1.21-8.21.91-5.44-.58-8.36-3.3-9.43-8.62-.04-.19-.1-.37-.16-.58h-3.66c-.24,5,2.46,9.29,7.1,11.08Z"></path>
  <path d="M447.87,74.26h-21.06v-13.87h23.44v-2.97h-27.45v38.39h27.96v-3.16h-23.96v-15.14h21.07v-3.25Z"></path>
  <path d="M240.67,94.44c-4.84-11.77-9.71-23.52-14.49-35.31-.55-1.36-1.19-2.05-2.67-1.79-.3.05-.62.05-.93,0-1.26-.2-1.9.32-2.39,1.52-3.21,7.76-6.5,15.49-9.76,23.23-1.9,4.5-3.79,9.01-5.81,13.82.96,0,1.64-.09,2.28.02,1.45.24,2.08-.42,2.56-1.74,1.13-3.09,2.46-6.11,3.65-9.19.34-.88.76-1.27,1.78-1.26,5.42.05,10.83.05,16.25,0,.92,0,1.37.28,1.7,1.15,1.26,3.32,2.61,6.61,3.88,9.93.3.78.69,1.18,1.57,1.11.91-.07,1.84-.02,2.91-.02-.22-.61-.36-1.04-.54-1.46ZM215.02,80.51c2.64-6.61,5.24-13.11,7.98-19.95,2.74,6.85,5.34,13.32,7.99,19.95h-15.97Z"></path>
  <path d="M185.75,66.98c-.32-4.27-2.29-7.39-6.49-8.65-1.94-.59-4.03-.89-6.07-.94-4.84-.13-9.69-.05-14.53-.04-.49,0-.98.07-1.47.1v38.33h3.87v-16.92c2.93,0,5.7.01,8.47,0,3.89-.02,7.74-.28,11.25-2.2,3.83-2.09,5.29-5.44,4.97-9.68ZM181.49,70.35c-.68,2.64-2.53,4.16-5.05,4.66-2.26.44-4.59.56-6.9.65-2.77.11-5.54.02-8.45.02v-14.91c.13-.1.21-.22.28-.22,4.63.08,9.29-.13,13.88.34,5.18.52,7.52,4.41,6.23,9.46Z"></path>
  <path d="M326.57,95.79h3.99v-35.38h12.94v-2.92h-29.96v2.97h13.03v35.33Z"></path>
</svg>