<svg viewBox="0 0 535.42 206.43" version="1.1" xmlns:xlink="http://www.w3.org/1999/xlink" xmlns="http://www.w3.org/2000/svg" id="Layer_1">
  
  <defs>
    <style>
      .st0 {
        fill: none;
      }

      .st1 {
        fill: url(#linear-gradient1);
      }

      .st2 {
        fill: url(#linear-gradient);
      }
    </style>
    <linearGradient gradientUnits="userSpaceOnUse" y2="0" x2="191.4" y1="142.89" x1="191.4" id="linear-gradient">
      <stop stop-opacity=".4" stop-color="#231f20" offset="0"></stop>
      <stop stop-color="#231f20" offset="1"></stop>
    </linearGradient>
    <linearGradient xlink:href="#linear-gradient" y2="142.89" x2="343.99" y1="0" x1="343.99" id="linear-gradient1"></linearGradient>
  </defs>
  <path d="M159.92,206.29c-1.65.18-5.37.2-7,0-2.27-.27-6.7-1.85-8.82-2.9-1.01-.5-6.36-3.7-6.2-4.57.04-.24,3.11-3.61,3.35-3.66.42-.08,5.05,3.32,6.18,3.85,4.31,2.02,12.2,3.26,16.32.44,2.32-1.59,3.05-4.91,1.23-7.12-4.49-5.45-25.61,1.23-25.38-12.42.18-10.97,14.32-11.52,22.23-9.23,1.21.35,6.87,2.67,7.39,3.46s-2.61,4.18-3.18,4.22c-.82.07-2.47-1.4-3.42-1.83-3.79-1.71-13.94-3.33-16.35.93-2.18,3.85,1.19,5.42,4.47,6.04,6.42,1.21,18.68-.45,20.93,8.1s-4,13.87-11.74,14.69Z"></path>
  <path d="M480.12,206.29c-2.24-.24-6.08-1.54-8.17-2.5-1.13-.52-7.04-3.91-6.85-4.97.04-.24,2.89-3.15,3.35-3.68,5.69,4.36,13.39,7.68,20.61,5.22,4.63-1.58,5.88-7.09,1.45-9.15-7.15-3.34-25.76,1.25-23.53-12.89,1.65-10.43,16.85-9.71,24.33-6.79.65.25,5.06,2.4,5.21,2.66.47.81-2.7,3.72-3.33,4.46-4.41-3.08-11.4-4.98-16.65-3.36-3.62,1.12-5.56,5.59-1.68,7.42,6.25,2.95,22.69-.97,24.12,9.81,1.08,8.12-4.1,12.94-11.87,13.77-1.7.18-5.3.18-7,0Z"></path>
  <path d="M439.53,206.29c-4.99-.63-11.9-5.93-11.9-11.35v-24.28h5.95v23.23c0,7.65,13.72,9.57,17.56,3.56.32-.5,1.33-2.78,1.33-3.21v-23.58h5.95v24.63c0,5.42-7.31,10.41-12.25,11-1.47.18-5.19.19-6.65,0Z"></path>
  <path d="M113.02,206.29c-5.55-.62-12.6-5.62-12.6-11.7v-23.93h5.95v22.88c0,.42.82,2.95,1.1,3.44,2.84,4.93,12.4,5.27,15.99,1.05.39-.46,1.8-3.03,1.8-3.44v-23.93h5.95v24.63c0,5.41-7.37,10.38-12.25,11-1.35.17-4.58.15-5.95,0Z"></path>
  <polygon points="535.42 170.66 535.42 175.9 521.77 175.9 521.77 205.25 515.82 205.25 515.82 175.9 502.17 175.9 502.17 170.66 535.42 170.66"></polygon>
  <path d="M41.98,194.07v-23.41h6.3v34.59h-5.42c-6.85-7.78-13.07-16.19-20.12-23.76v23.76h-5.95v-34.59h5.42c6.58,7.8,12.89,15.91,19.77,23.41Z"></path>
  <path d="M59.13,205.25v-34.59h19.42c1.61,0,5.36,1.41,6.84,2.26,13.27,7.58,8.4,32.33-6.84,32.33h-19.42ZM65.08,199.66h13.82c.79,0,3.48-1.55,4.15-2.15,5.52-4.93,5.12-16.95-1.86-20.4-.53-.26-2.96-1.21-3.34-1.21h-12.77v23.76Z"></path>
  <path d="M409.61,170.66c12.01,1.42,13.99,16.51,2.62,20.44l8.05,14.14h-7l-7-13.28h-12.6v13.28h-5.95v-34.59h21.87ZM393.69,186.73h15.57c2.25,0,4.85-3.51,4.75-5.76s-2.95-5.07-5.1-5.07h-15.22v10.83Z"></path>
  <path d="M247.06,205.25h-6.47c-.76,0-6.49-11.74-7.52-13.28h-12.25v13.28h-5.95v-34.59h21.52c8.89,0,14.15,12.1,6.48,18.35-.83.68-3.5,1.7-3.52,2.42l7.71,13.82ZM220.98,175.9c-.12.18-.52.43-.52.52v9.78s.49.52.52.52h15.05c2.22,0,4.81-3.55,4.74-5.75s-2.83-5.08-5.09-5.08h-14.7Z"></path>
  <path d="M267.35,205.25l15.78-34.03c.9-1.16,3.96-.29,5.4-.59l16.26,34.61h-6.65l-3.81-9.23c-5.31-.44-10.86-.15-16.26-.15-.9.31-3.75,8.02-4.43,9.38h-6.3ZM291.85,191.27l-5.6-13.62-6.29,13.62h11.9Z"></path>
  <polygon points="208.21 170.66 208.21 175.9 194.56 175.9 194.56 205.25 188.61 205.25 188.61 175.9 174.97 175.9 174.97 170.66 208.21 170.66"></polygon>
  <polygon points="381.44 170.66 381.44 175.9 367.79 175.9 367.79 205.25 361.84 205.25 361.84 175.9 348.19 175.9 348.19 170.66 381.44 170.66"></polygon>
  <polygon points="317.05 170.66 317.05 200.01 338.39 200.01 338.39 205.25 311.1 205.25 311.1 170.66 317.05 170.66"></polygon>
  <rect height="34.59" width="5.95" y="170.66" x="0"></rect>
  <rect height="34.59" width="5.95" y="170.66" x="255.11"></rect>
  <g>
    <path d="M255.8,48.91c-6.18.03-12.37,0-18.55,0l20.97,22.14-23.07,22.93h17.67c4.92-4.7,9.51-9.92,14.65-14.3l.22.31v-18.16c-.06.02-.11.02-.15.01l-11.74-12.93Z" class="st0"></path>
    <path d="M191.76,48.91c-3.05.02-12.54-.6-14.7,0v45.07h46.19v-9.78h-31.5v-35.28Z" class="st0"></path>
    <path d="M267.48,79.68c-5.14,4.38-9.73,9.59-14.65,14.3h-17.67l23.07-22.93-20.97-22.14c6.18,0,12.37.03,18.55,0l11.74,12.93s.09,0,.15-.01V0L115.28,35.26c-.29,4.74-.14,9.58-.15,14.35-.07,19.43.01,38.87.05,58.3l143.08,33.06c3.02.31,6.46,1.91,9.44,1.92v-62.9l-.22-.31ZM223.26,93.98h-46.19v-45.07c2.16-.6,11.65.02,14.7,0v35.28h31.5v9.78Z" class="st2"></path>
    <path d="M275.76,141.32l144.49-33.4c.05-12.68.05-25.37.03-38.05-.01-11.64.01-23.29,0-34.93-27.82-5.95-55.53-12.68-83.28-19.05-23.08-5.3-46.21-10.54-69.3-15.89h0v61.82c1.75-.47,11.54-11.43,13.13-12.92h18.02l-21.7,21.31-.29.16c4.91,5.84,10.75,10.91,16.05,16.42,1.73,1.8,4.73,4.67,6.12,6.47.27.35.68.44.52,1.05h-18.02l-13.82-14.32h0s0,62.88,0,62.88c0,0,0,0,0,0,2.62,0,5.44-1.26,8.05-1.57ZM317.04,48.91h34.14c10.28-.28,24.26,8.72,18.01,20.26-2.56,4.73-10.61,9.08-15.92,9.08h-21.17v16.07h-14.52c-.38,0-.5-.85-.54-1.2-.73-6.25,0-15.59.02-22.2,0-7.33,0-14.68,0-22.01ZM350.47,68.47h-18.37v-9.78h18.37c.12,0,2.08.66,2.36.79,3.78,1.79,3.59,6.74-.19,8.37-.26.11-2.05.63-2.17.63Z" class="st1"></path>
  </g>
</svg>