<svg xmlns="http://www.w3.org/2000/svg" fill="none" viewBox="0 0 61 60" height="60" width="61">
<path fill="#1D2018" d="M15 9.26093C15 8.18035 15.876 7.30437 16.9566 7.30437L52.0434 7.30437C53.124 7.30437 54 8.18035 54 9.26092V44.5C54 45.5806 53.124 46.4565 52.0434 46.4565L47.5 46.4565C47.2239 46.4565 47 46.6804 47 46.9565V46.9565C47 47.2327 47.2239 47.4565 47.5 47.4565L54.8478 47.4566C54.9319 47.4566 55 47.3884 55 47.3044V47.3044L55 46.4566L55 7.30437V7.30437C55 6.75208 54.5523 6.30437 54 6.30437V6.30437L15 6.30437L14 6.30437V6.30437C14 6.30437 14 6.30439 14 6.30441V7.30435C14 7.30436 14 7.30437 14 7.30437V7.30437C14 7.30437 14 7.30438 14 7.30439L14 13.8044C14 14.0805 14.2239 14.3044 14.5 14.3044V14.3044C14.7762 14.3044 15 14.0805 15 13.8044L15 9.26093Z" clip-rule="evenodd" fill-rule="evenodd"></path>
<path fill="#1D2018" d="M7.00002 14.3042C7.00003 14.3042 7.00004 14.3042 7.00004 14.3042L7.00004 53.3042C7.00004 53.3042 7.00003 53.3042 7.00002 53.3042C7.00001 53.3042 7 53.3042 7 53.3042V54.3042C7 54.3042 7.00002 54.3042 7.00004 54.3042H8.00004H47C47.5523 54.3042 48 53.8565 48 53.3042V14.3042C48 13.7519 47.5523 13.3042 47 13.3042H8.00004H7.00004C7.00002 13.3042 7 13.3042 7 13.3042V14.3042C7 14.3042 7.00001 14.3042 7.00002 14.3042ZM9.95659 14.3042C8.87602 14.3042 8.00004 15.1802 8.00004 16.2608L8.00004 51.3476C8.00004 52.4282 8.87602 53.3042 9.95659 53.3042L45.0434 53.3042C46.124 53.3042 47 52.4282 47 51.3476V16.2608C47 15.1802 46.124 14.3042 45.0434 14.3042L9.95659 14.3042Z" clip-rule="evenodd" fill-rule="evenodd"></path>
<path fill="#1D2018" d="M30 33.3042C28.8954 33.3042 28 32.4088 28 31.3042V24.9564C28 24.5962 27.708 24.3042 27.3478 24.3042C26.9876 24.3042 26.6956 24.5962 26.6956 24.9564V31.3042C26.6956 32.4088 25.8002 33.3042 24.6956 33.3042L18.6522 33.3042C18.292 33.3042 18 33.5962 18 33.9564C18 34.3166 18.292 34.6086 18.6522 34.6086L24.6956 34.6086C25.8002 34.6086 26.6956 35.504 26.6956 36.6086V42.652C26.6956 43.0122 26.9876 43.3042 27.3478 43.3042C27.708 43.3042 28 43.0122 28 42.652V36.6086C28 35.504 28.8954 34.6086 30 34.6086L36.3478 34.6086C36.708 34.6086 37 34.3166 37 33.9564C37 33.5962 36.708 33.3042 36.3478 33.3042L30 33.3042Z" clip-rule="evenodd" fill-rule="evenodd"></path>
</svg>
